<svg xmlns="http://www.w3.org/2000/svg" viewBox="0 0 32 32">

  <path d="M16 2
           C8.268 2 2 8.268 2 16
           c0 7.732 6.268 14 14 14
           c7.732 0 14-6.268 14-14
           c0-7.732-6.268-14-14-14z"
        fill="#6366F1"/>


  <path d="M22 12
           c-3.314 0-6 2.686-6 6
           s2.686 6 6 6
           s6-2.686 6-6
           s-2.686-6-6-6z"
        fill="#A5B4FC"
        opacity="0.9"/>

  <path d="M10 8
           c-3.314 0-6 2.686-6 6
           s2.686 6 6 6
           s6-2.686 6-6
           s-2.686-6-6-6z"
        fill="#818CF8"
        opacity="0.9"/>


  <path d="M19 16
           c0 1.657-1.343 3-3 3
           s-3-1.343-3-3
           s1.343-3 3-3
           s3 1.343 3 3z"
        fill="white"/>
</svg>
